/* XPM */
static const char *coin_png[] = {
/* columns rows colors chars-per-pixel */
"32 32 9 1 ",
"  c black",
". c #030200",
"X c #030300",
"o c #080700",
"O c #957700",
"+ c #9C7D00",
"@ c #C29C00",
"# c #FFCC00",
"$ c #FFD000",
/* pixels */
"                                ",
"                                ",
"                                ",
"                                ",
"                                ",
"                                ",
"                                ",
"                                ",
"                                ",
"                                ",
"                                ",
"                X               ",
"             oO@@Oo             ",
"            o+#$$#+o            ",
"            O######O            ",
"           X@$####$@X           ",
"           X@$####$@            ",
"            O######O            ",
"            o+#$$#+o            ",
"             oO@@Oo             ",
"                X               ",
"                                ",
"                                ",
"                                ",
"                                ",
"                                ",
"                                ",
"                                ",
"                                ",
"                                ",
"                                ",
"                                "
};
