/* XPM */
static const char *enemy_png[] = {
/* columns rows colors chars-per-pixel */
"32 32 50 1 ",
"  c #000000",
". c #020000",
"X c #030000",
"o c #040000",
"O c #080000",
"+ c #090000",
"@ c #130000",
"# c #6C0000",
"$ c #880003",
"% c #8E0003",
"& c #8E0103",
"* c #920000",
"= c #950000",
"- c #9C0000",
"; c #B70303",
": c #B80000",
"> c #BE0003",
", c #C20000",
"< c #C60000",
"1 c #C60003",
"2 c #C60103",
"3 c #C60303",
"4 c #CE0000",
"5 c #CA0308",
"6 c #F60000",
"7 c #F60303",
"8 c #FF0000",
"9 c #FF0303",
"0 c #FF0403",
"q c #FF0808",
"w c #0B0495",
"e c #0C0495",
"r c #0303BE",
"t c #0B0ABE",
"y c #0C0ABE",
"u c #0304C2",
"i c #0004FF",
"p c #030BFF",
"a c #030CFF",
"s c #0B18FF",
"d c #0B19FF",
"f c #BE6C95",
"g c #FF9595",
"h c #CA98C2",
"j c #F6BCC2",
"k c #BEC6FF",
"l c #FFC2C2",
"z c #C6CEFF",
"x c #F6F8FF",
"c c white",
/* pixels */
"                                ",
"      +#               o#+      ",
"     +==                ==+     ",
"    +-,+                +,-+    ",
"    =8<+     ooo oo     +<8=    ",
"   o,88-+  +=,,,,,,=+  +-88,o   ",
"   o,888=@*<88888888<*@=888,o   ",
"    ,8888488888888888848888,o   ",
"    =8888888888888888888888=    ",
"    +<88880888888800888888<+    ",
"     =8qgllgq888qgllgq8888=     ",
"     +<gccccg888gccccg888<+     ",
"      ;hkzxcl087hkzxcl088,o     ",
"     o&yaszcl082taszcl088,o     ",
"     o$riakcl08>riakcl088,      ",
"     o$uiakcl08>uiakcl888,o     ",
"     o&epszcg88<wpszcg888,o     ",
"      :5fhjgq8865fhjgq888,o     ",
"     o,880088888880088888,o     ",
"     o,888888888888888888,      ",
"      ,888888888888888888,o     ",
"     o,888888888888888888,o     ",
"     o,888888888888888888,      ",
"     o,888888888888888888,o     ",
"     o,88<<8888<<8888<<88,      ",
"     o,8-++-88-++-88-++-8,o     ",
"     o,-+  +-<+  +<-+  +-,o     ",
"     o#+    +#    #+    +#o     ",
"                                ",
"                                ",
"                                ",
"                                "
};
