/* XPM */
static const char *exit_png[] = {
/* columns rows colors chars-per-pixel */
"32 32 34 1 ",
"  c #000000",
". c #020100",
"X c #020200",
"o c #030300",
"O c #040300",
"+ c #050400",
"@ c #080700",
"# c #090800",
"$ c #0C0A00",
"% c #493A00",
"& c #4D3D00",
"* c #5C4900",
"= c #604D00",
"- c #796100",
"; c #7A6100",
": c #7D6400",
"> c #836800",
", c #856900",
"< c #886C00",
"1 c #8E7200",
"2 c #957700",
"3 c #9C7D00",
"4 c #AF8B00",
"5 c #AF8D00",
"6 c #B79200",
"7 c #BC9700",
"8 c #BE9800",
"9 c #C49D00",
"0 c #C89F00",
"q c #CAA100",
"w c #F4C200",
"e c #F6C600",
"r c #FFCC00",
"t c #FFD000",
/* pixels */
"          +$0trrrrt0$O          ",
"        #289wrrrrrrw982#        ",
"      @2qwrw97777779wrwq2@      ",
"     #3rwq85<,,,,,,<58qwr3#     ",
"    1qwwq5<,;=****=;,<5qwwq1    ",
"   #qrq95<;=%+    +%=;<59qrq#   ",
"  @3wq85<;&+        +&;<58qw3@  ",
"  2rw95<;&+          +&;<59wr2  ",
" #qwq5<:=+            +=:<5qwq# ",
" 2wq6<;;%              %;;<6qw2 ",
"O8r05>:=+              +=:>50r8O",
"$9w94>;%                %;>49w9$",
"0wq6<:=+                +=:<6qw0",
"tr05>:*                  *:>50rt",
"re05>:*                  *:>50er",
"re05>:*                  *:>50er",
"re05>:*                  *:>50er",
"re05>:*                  *:>50er",
"tr05>:*                  *:>50rt",
"0wq6<:=+                +=:<6qw0",
"$9w94,;%                %;>49w9$",
"O8r05>:=+              +=:>50r8O",
" 2wq6<;;%              %;;<6qw2 ",
" #qwq5<:=+            +=:<5qwq# ",
"  2rw95<;&+          +&;<59wr2  ",
"  @3wq85<;&+        +&;<58qw3@  ",
"   #qrq95<;=%+    +%=;<59qrq#   ",
"    1qwwq5<,;=****=;,<5qwwq1    ",
"     #3rwq85<,,,,,,<58qwr3#     ",
"      @2qwrw97777779wrwq2@      ",
"        #289wrrrrrrw982#        ",
"          O$0trrrrt0$O          "
};
