/* XPM */
static const char *wall_png[] = {
/* columns rows colors chars-per-pixel */
"32 32 7 1 ",
"  c black",
". c #000003",
"X c #01000B",
"o c #0500BE",
"O c #0500C6",
"+ c #0600F6",
"@ c #0600FF",
/* pixels */
"@@@@@@@@@@@@@@@@@@@@@@@@@@@@@@@@",
"@@@@@@@@@@@@@@@@@@@@@@@@@@@@@@@@",
"@@+OooooooooooooooooooooooooO+@@",
"@@OX........................XO@@",
"@@o..........................o@@",
"@@o..........................o@@",
"@@o..........................o@@",
"@@o..........................o@@",
"@@o..........................o@@",
"@@o..........................o@@",
"@@o..........................o@@",
"@@o..........................o@@",
"@@o..........................o@@",
"@@o..........................o@@",
"@@o..........................o@@",
"@@o..........................o@@",
"@@o..........................o@@",
"@@o..........................o@@",
"@@o..........................o@@",
"@@o..........................o@@",
"@@o..........................o@@",
"@@o..........................o@@",
"@@o..........................o@@",
"@@o..........................o@@",
"@@o..........................o@@",
"@@o..........................o@@",
"@@o..........................o@@",
"@@o..........................o@@",
"@@OX........................XO@@",
"@@+OooooooooooooooooooooooooO+@@",
"@@@@@@@@@@@@@@@@@@@@@@@@@@@@@@@@",
"@@@@@@@@@@@@@@@@@@@@@@@@@@@@@@@@"
};
