/* XPM */
static const char *fotograma_000001[] = {
/* columns rows colors chars-per-pixel */
"32 32 2 1 ",
"  c black",
". c #FFCC00",
/* pixels */
"                                ",
"                                ",
"                                ",
"            ........            ",
"          ............          ",
"        ...............         ",
"       ...............          ",
"      ...............           ",
"     ...............            ",
"     ..............             ",
"    ..............              ",
"    .............               ",
"   .............                ",
"   ............                 ",
"   ...........                  ",
"   ..........                   ",
"   ...........                  ",
"   ............                 ",
"   .............                ",
"   ..............               ",
"    ..............              ",
"    ...............             ",
"     ...............            ",
"     ................           ",
"      ................          ",
"       ................         ",
"        ................        ",
"          ............          ",
"            ........            ",
"                                ",
"                                ",
"                                "
};
